<svg width="456" height="183" viewBox="0 0 456 183" fill="none" xmlns="http://www.w3.org/2000/svg">
<circle cx="394.828" cy="77.8275" r="26.2389" transform="rotate(37.9696 394.828 77.8275)" fill="url(#paint0_linear_1162_39)"/>
<circle cx="70.8522" cy="88.0083" r="11.5588" transform="rotate(-59.1271 70.8522 88.0083)" fill="url(#paint1_linear_1162_39)"/>
<circle cx="149.843" cy="152.842" r="21.1624" transform="rotate(-130.688 149.843 152.842)" fill="url(#paint2_linear_1162_39)"/>
<circle cx="255.843" cy="91.8422" r="21.1624" transform="rotate(142.442 255.843 91.8422)" fill="url(#paint3_linear_1162_39)"/>
<path d="M1.33926e-06 47.8066V155.534C94.0458 216.198 215.784 154.386 320.28 130.625C359.607 116.961 401.01 109.243 447.329 113.686C450.244 113.832 453.11 114.062 456 114.27V0H1.33926e-06C1.33926e-06 0 -1.67408e-06 16.9995 1.33926e-06 47.8066Z" fill="#198CD6"/>
<path d="M447.375 113.245C401.278 108.854 359.619 116.977 320.5 130.5C320.156 130.582 320.844 130.418 320.5 130.5C371.389 119.266 416.537 128.726 456 148V113.822C453.15 113.616 450.275 113.41 447.375 113.245Z" fill="#198CD6"/>
<circle cx="428.547" cy="30.5475" r="17.4892" transform="rotate(37.9696 428.547 30.5475)" fill="url(#paint4_linear_1162_39)"/>
<circle cx="86.8522" cy="136.851" r="11.5588" transform="rotate(-59.1271 86.8522 136.851)" fill="url(#paint5_linear_1162_39)"/>
<circle cx="182.812" cy="132.106" r="13.7166" transform="rotate(-59.1271 182.812 132.106)" fill="url(#paint6_linear_1162_39)"/>
<circle cx="193.843" cy="47.8432" r="21.1624" transform="rotate(-130.688 193.843 47.8432)" fill="url(#paint7_linear_1162_39)"/>
<circle cx="52.8172" cy="61.8176" r="21.1624" transform="rotate(130.067 52.8172 61.8176)" fill="url(#paint8_linear_1162_39)"/>
<circle cx="285.961" cy="102.961" r="17.5301" transform="rotate(85.1087 285.961 102.961)" fill="url(#paint9_linear_1162_39)"/>
<circle cx="349.676" cy="50.6762" r="21.1624" transform="rotate(142.442 349.676 50.6762)" fill="url(#paint10_linear_1162_39)"/>
<defs>
<linearGradient id="paint0_linear_1162_39" x1="394.828" y1="51.5885" x2="394.828" y2="104.066" gradientUnits="userSpaceOnUse">
<stop stop-color="#177BBB" stop-opacity="0"/>
<stop offset="1" stop-color="#4BA7E2"/>
</linearGradient>
<linearGradient id="paint1_linear_1162_39" x1="70.8522" y1="76.4495" x2="70.8522" y2="99.5671" gradientUnits="userSpaceOnUse">
<stop offset="0.244" stop-color="#187FC2" stop-opacity="0"/>
<stop offset="1" stop-color="#4299D3"/>
</linearGradient>
<linearGradient id="paint2_linear_1162_39" x1="149.843" y1="131.68" x2="149.843" y2="174.005" gradientUnits="userSpaceOnUse">
<stop stop-color="#177BBB" stop-opacity="0"/>
<stop offset="1" stop-color="#4BA7E2"/>
</linearGradient>
<linearGradient id="paint3_linear_1162_39" x1="255.843" y1="70.6798" x2="255.843" y2="113.005" gradientUnits="userSpaceOnUse">
<stop stop-color="#177BBB" stop-opacity="0"/>
<stop offset="1" stop-color="#4BA7E2"/>
</linearGradient>
<linearGradient id="paint4_linear_1162_39" x1="428.547" y1="13.0583" x2="428.547" y2="48.0366" gradientUnits="userSpaceOnUse">
<stop stop-color="#177BBB" stop-opacity="0"/>
<stop offset="1" stop-color="#6DBAE2"/>
</linearGradient>
<linearGradient id="paint5_linear_1162_39" x1="86.8522" y1="125.292" x2="86.8522" y2="148.41" gradientUnits="userSpaceOnUse">
<stop offset="0.244" stop-color="#187FC2" stop-opacity="0"/>
<stop offset="1" stop-color="#46A4DF"/>
</linearGradient>
<linearGradient id="paint6_linear_1162_39" x1="182.812" y1="118.39" x2="182.812" y2="145.823" gradientUnits="userSpaceOnUse">
<stop offset="0.244" stop-color="#187FC2" stop-opacity="0"/>
<stop offset="1" stop-color="#42A1DD"/>
</linearGradient>
<linearGradient id="paint7_linear_1162_39" x1="193.843" y1="26.6808" x2="193.843" y2="69.0055" gradientUnits="userSpaceOnUse">
<stop stop-color="#177BBB" stop-opacity="0"/>
<stop offset="1" stop-color="#4BA7E2"/>
</linearGradient>
<linearGradient id="paint8_linear_1162_39" x1="52.8172" y1="40.6552" x2="52.8172" y2="82.98" gradientUnits="userSpaceOnUse">
<stop stop-color="#177BBB" stop-opacity="0"/>
<stop offset="1" stop-color="#4BA7E2"/>
</linearGradient>
<linearGradient id="paint9_linear_1162_39" x1="285.961" y1="85.4309" x2="285.961" y2="120.491" gradientUnits="userSpaceOnUse">
<stop stop-color="#177BBB" stop-opacity="0"/>
<stop offset="1" stop-color="#4BA7E2"/>
</linearGradient>
<linearGradient id="paint10_linear_1162_39" x1="349.676" y1="29.5138" x2="349.676" y2="71.8385" gradientUnits="userSpaceOnUse">
<stop stop-color="#177BBB" stop-opacity="0"/>
<stop offset="1" stop-color="#4BA7E2"/>
</linearGradient>
</defs>
</svg>
